<svg width="131" height="78" fill="none" xmlns="http://www.w3.org/2000/svg"><g filter="url('#filter0_d')"><path d="M9.592 43.552c0-1.824.368-3.584 1.104-5.28.768-1.728 1.76-3.248 2.976-4.56a15.108 15.108 0 0 1 4.224-3.216c1.6-.832 3.248-1.248 4.944-1.248 1.664 0 2.944.416 3.84 1.248.896.832 1.344 2.016 1.344 3.552 0 .736-.112 1.456-.336 2.16a6.746 6.746 0 0 1-.816 1.824 4.74 4.74 0 0 1-1.152 1.344c-.448.32-.896.48-1.344.48-.384 0-.784-.112-1.2-.336a3.428 3.428 0 0 1-.96-.96c2.144-1.952 3.216-3.728 3.216-5.328 0-.928-.368-1.392-1.104-1.392-.64 0-1.44.304-2.4.912-.96.608-1.888 1.408-2.784 2.4a16.775 16.775 0 0 0-3.168 5.136 16.372 16.372 0 0 0-1.056 5.856c0 2.592.576 4.144 1.728 4.656.48-.064 1.04-.208 1.68-.432.64-.224 1.328-.512 2.064-.864a33.523 33.523 0 0 0 2.256-1.296c.8-.48 1.568-.992 2.304-1.536.128.096.24.24.336.432.096.192.144.368.144.528A17.837 17.837 0 0 1 23.56 49.6c-.704.64-1.44 1.232-2.208 1.776a18.38 18.38 0 0 1-2.256 1.296c-.704.384-1.328.624-1.872.72a6.731 6.731 0 0 1-2.976-1.008 8.696 8.696 0 0 1-2.448-2.16 11.71 11.71 0 0 1-1.632-3.072 11.31 11.31 0 0 1-.576-3.6ZM35.125 53.68c-1.824-.192-3.28-.992-4.368-2.4-1.088-1.408-1.632-3.2-1.632-5.376 0-1.28.192-2.608.576-3.984a18.643 18.643 0 0 1 1.632-3.984 22.033 22.033 0 0 1 2.496-3.696c.96-1.152 2-2.144 3.12-2.976 1.76-1.312 3.408-1.968 4.944-1.968 1.024.544 2.032 1.68 3.024 3.408h.432c.128-.032.272-.048.432-.048 1.696 0 2.544 1.504 2.544 4.512 0 2.016-.336 3.936-1.008 5.76a16.736 16.736 0 0 1-2.736 4.896 16.155 16.155 0 0 1-4.176 3.744c-1.6.992-3.36 1.696-5.28 2.112Zm2.448-15.12a22.036 22.036 0 0 0-1.536 2.4 21.99 21.99 0 0 0-1.248 2.64 16.706 16.706 0 0 0-.816 2.544c-.192.8-.288 1.52-.288 2.16 0 .768.128 1.504.384 2.208.256.704.544 1.104.864 1.2 1.44-.32 2.752-.912 3.936-1.776 1.216-.896 2.256-2 3.12-3.312.896-1.312 1.584-2.8 2.064-4.464.512-1.664.768-3.44.768-5.328 0-.832-.048-1.488-.144-1.968a3.628 3.628 0 0 0-.48-1.248 10.578 10.578 0 0 0-3.792 2.016 20.244 20.244 0 0 0-2.832 2.928Zm40.82-1.296c-.513.032-1.137.368-1.873 1.008-.736.608-1.536 1.408-2.4 2.4a84.819 84.819 0 0 0-2.64 3.216 254.207 254.207 0 0 0-2.64 3.552c-.832 1.152-1.616 2.24-2.352 3.264a41.812 41.812 0 0 1-1.872 2.448 5.153 5.153 0 0 1-1.824-1.248c-.512-.576-.88-1.28-1.104-2.112.16-.992.384-2.016.672-3.072a31.588 31.588 0 0 1 1.104-3.36 40.389 40.389 0 0 1 1.728-3.6 43.187 43.187 0 0 1 2.544-4.032c-.48.032-1.136.384-1.968 1.056-.832.64-1.728 1.488-2.688 2.544a51.11 51.11 0 0 0-2.976 3.504 91.514 91.514 0 0 0-2.88 3.792 111.347 111.347 0 0 0-2.976 4.368c-.768 1.248-1.328 1.984-1.68 2.208-.832-.608-1.408-1.264-1.728-1.968a10.12 10.12 0 0 1-.72-2.352c.032-.768.144-1.728.336-2.88a32.25 32.25 0 0 1 .912-3.552 47.428 47.428 0 0 1 2.832-6.96 176.952 176.952 0 0 1 3.408-6.336 7.96 7.96 0 0 1 2.4.912c.736.416 1.504 1.024 2.304 1.824-.32.992-.816 2.048-1.488 3.168a450.278 450.278 0 0 0-2.112 3.456 42.163 42.163 0 0 0-2.016 3.744 13.634 13.634 0 0 0-1.2 3.888c.896-1.28 1.952-2.752 3.168-4.416a83.692 83.692 0 0 1 3.792-4.704c1.312-1.472 2.608-2.72 3.888-3.744 1.28-1.024 2.432-1.536 3.456-1.536.384 0 .8.064 1.248.192.448.128.864.288 1.248.48s.704.384.96.576c.256.16.4.288.432.384-.16.64-.544 1.52-1.152 2.64-.576 1.088-1.2 2.24-1.872 3.456a97.523 97.523 0 0 0-1.872 3.552c-.576 1.12-.912 2.016-1.008 2.688 1.568-2.144 3.04-4.08 4.416-5.808 1.376-1.76 2.672-3.264 3.888-4.512 1.216-1.248 2.336-2.208 3.36-2.88 1.056-.672 2.048-1.008 2.976-1.008.64 0 1.232.176 1.776.528.576.32.976.8 1.2 1.44-.288.96-.768 2.112-1.44 3.456a194.551 194.551 0 0 0-1.968 4.272 70.613 70.613 0 0 0-1.824 4.368c-.512 1.44-.768 2.736-.768 3.888 0 .672.096 1.12.288 1.344.192.192.464.288.816.288.384 0 .736-.064 1.056-.192.352-.16.608-.24.768-.24.192.128.304.288.336.48.032.192.048.368.048.528-.64.512-1.296.928-1.968 1.248-.672.352-1.424.528-2.256.528-.768 0-1.408-.128-1.92-.384a3.456 3.456 0 0 1-1.2-1.056 4.165 4.165 0 0 1-.672-1.536 8.625 8.625 0 0 1-.192-1.872c0-1.088.144-2.16.432-3.216a26.586 26.586 0 0 1 1.008-3.072c.416-.992.848-1.904 1.296-2.736a76.94 76.94 0 0 0 1.152-2.304Zm11.364 28.608c-.8-.32-1.28-.928-1.44-1.824-.128-.864-.672-1.568-1.632-2.112.256-1.632.544-3.28.864-4.944.32-1.664.72-3.552 1.2-5.664a366.649 366.649 0 0 1 1.872-7.44 735.837 735.837 0 0 1 2.88-10.32c-1.056 0-1.888.016-2.496.048-.608.032-1.2.096-1.776.192a1.668 1.668 0 0 1-.336-.528 2.281 2.281 0 0 1-.096-.624c.32-.128.976-.288 1.968-.48.992-.224 2.08-.416 3.264-.576.768-2.432 1.648-4.608 2.64-6.528.992-1.952 2.064-3.616 3.216-4.992 1.152-1.376 2.368-2.432 3.648-3.168 1.28-.736 2.576-1.104 3.888-1.104.384 0 .752.032 1.104.096.352.032.624.048.816.048.288-.224.672-.416 1.152-.576.48-.192.896-.288 1.248-.288.384 0 .88.208 1.488.624-.256.448-.528 1.056-.816 1.824a22.88 22.88 0 0 0-.72 2.256c-.8 2.368-1.648 3.904-2.544 4.608-.352 0-.544-.464-.576-1.392a10.069 10.069 0 0 0-.288-1.968 5.96 5.96 0 0 1-.288-.768 6.323 6.323 0 0 1-.048-.864c0-.192.016-.416.048-.672.032-.288.096-.752.192-1.392-.544 0-1.152.336-1.824 1.008-.64.672-1.328 1.632-2.064 2.88-.704 1.216-1.424 2.672-2.16 4.368a65.224 65.224 0 0 0-2.112 5.616l4.032-.144c.16.16.288.528.384 1.104a9.78 9.78 0 0 1 .24 1.728l-5.28-.288a762.002 762.002 0 0 0-3.408 10.368c-1.056 3.296-2 6.336-2.832 9.12a437.019 437.019 0 0 0-2.16 7.44c-.576 2.208-.992 3.984-1.248 5.328ZM121.57 44.56a111.672 111.672 0 0 1-2.208 6.384 51.094 51.094 0 0 1-2.352 5.28 35.076 35.076 0 0 1-2.688 4.464 33.596 33.596 0 0 1-3.168 3.888c-1.472 1.536-2.992 2.704-4.56 3.504-1.568.832-3.136 1.248-4.704 1.248-.8 0-1.6-.096-2.4-.288a9.52 9.52 0 0 1-2.16-.72 7.184 7.184 0 0 1-1.824-1.056c-.544-.384-.928-.8-1.152-1.248 0-.384.224-.72.672-1.008.384.352.704.624.96.816.256.192.512.352.768.48.224.128.48.208.768.24.256.032.56.048.912.048 1.824 0 3.6-.544 5.328-1.632 1.76-1.056 3.408-2.576 4.944-4.56 1.568-1.952 2.992-4.336 4.272-7.152 1.28-2.784 2.368-5.904 3.264-9.36-.416.64-.928 1.424-1.536 2.352a37.997 37.997 0 0 1-2.016 2.784 24.13 24.13 0 0 1-2.304 2.448c-.768.736-1.52 1.232-2.256 1.488a6.45 6.45 0 0 1-1.632-.336 6.379 6.379 0 0 1-1.584-.72 6.315 6.315 0 0 1-1.296-1.152 3.488 3.488 0 0 1-.768-1.536c0-.928.032-1.664.096-2.208.064-.576.176-1.2.336-1.872.288-1.216.704-2.592 1.248-4.128a46.925 46.925 0 0 1 1.968-4.512 35.126 35.126 0 0 1 2.496-4.176c.928-1.312 1.888-2.336 2.88-3.072.256 0 .576.032.96.096.384.032.784.112 1.2.24.416.128.816.288 1.2.48.384.16.72.384 1.008.672-.352.32-1.12 1.392-2.304 3.216-1.184 1.824-2.496 4.448-3.936 7.872-.16.352-.352.864-.576 1.536a84.347 84.347 0 0 0-.672 2.112 70.167 70.167 0 0 0-.528 2.16c-.16.704-.24 1.264-.24 1.68 0 .256.032.448.096.576.096.128.176.224.24.288.576-.096 1.344-.56 2.304-1.392.96-.864 2.048-2.192 3.264-3.984a58.277 58.277 0 0 0 2.112-3.408c.64-1.152 1.264-2.304 1.872-3.456.64-1.152 1.296-2.336 1.968-3.552a121.673 121.673 0 0 1 2.16-3.744c.416 0 .864.048 1.344.144.48.096.944.224 1.392.384.448.128.832.288 1.152.48.352.16.608.336.768.528a198.528 198.528 0 0 0-2.784 6.192 68.212 68.212 0 0 0-2.304 6.192Z" fill="#fff"/></g><defs><filter id="filter0_d" x="5.592" y="15.088" width="125.067" height="62.24" filterUnits="userSpaceOnUse" color-interpolation-filters="sRGB"><feFlood flood-opacity="0" result="BackgroundImageFix"/><feColorMatrix in="SourceAlpha" values="0 0 0 0 0 0 0 0 0 0 0 0 0 0 0 0 0 0 127 0"/><feOffset dy="4"/><feGaussianBlur stdDeviation="2"/><feColorMatrix values="0 0 0 0 0 0 0 0 0 0 0 0 0 0 0 0 0 0 0.25 0"/><feBlend in2="BackgroundImageFix" result="effect1_dropShadow"/><feBlend in="SourceGraphic" in2="effect1_dropShadow" result="shape"/></filter></defs></svg>